<?xml version="1.0" standalone="no"?>
<!DOCTYPE svg PUBLIC "-//W3C//DTD SVG 20010904//EN"
 "http://www.w3.org/TR/2001/REC-SVG-20010904/DTD/svg10.dtd">
<svg version="1.0" xmlns="http://www.w3.org/2000/svg"
 width="500.000000pt" height="500.000000pt" viewBox="0 0 500.000000 500.000000"
 preserveAspectRatio="xMidYMid meet">
<metadata>
Created by potrace 1.14, written by Peter Selinger 2001-2017
</metadata>
<g transform="translate(0.000000,500.000000) scale(0.100000,-0.100000)"
fill="#000000" stroke="none">
<path d="M2447 4853 c-1 0 -45 -4 -97 -7 -134 -7 -219 -18 -330 -41 -14 -3
-37 -7 -51 -10 -40 -7 -196 -53 -279 -82 -88 -31 -393 -183 -465 -232 -78 -53
-235 -172 -265 -200 -213 -202 -264 -258 -383 -425 -87 -119 -191 -305 -247
-436 -51 -121 -110 -304 -123 -380 -3 -14 -9 -43 -15 -65 -13 -50 -23 -113
-37 -245 -8 -76 -9 -362 -1 -435 12 -114 16 -138 26 -198 16 -89 17 -94 40
-182 11 -44 23 -87 25 -95 27 -109 136 -361 207 -478 21 -34 38 -64 38 -67 0
-2 21 -34 47 -72 197 -289 434 -520 718 -700 92 -58 361 -193 385 -193 9 0 20
-4 26 -9 8 -7 131 -51 159 -57 6 -1 39 -10 75 -19 96 -25 95 -25 175 -40 82
-15 103 -18 135 -20 19 -2 62 -6 95 -9 75 -7 303 -9 370 -2 125 12 203 22 235
31 8 2 35 7 59 10 23 4 54 10 67 15 13 5 24 7 24 5 0 -2 11 0 25 5 14 5 36 12
48 14 37 7 211 67 221 77 6 5 16 9 23 9 16 0 211 93 278 133 112 67 255 164
330 226 159 129 339 326 450 491 28 41 53 76 58 78 4 2 7 7 7 12 0 4 18 37 39
72 113 186 231 496 266 703 2 11 9 47 14 80 22 126 26 176 26 360 0 213 -9
325 -40 485 -51 264 -180 587 -320 798 -30 46 -55 88 -55 93 0 5 -4 9 -8 9 -4
0 -15 12 -24 28 -39 64 -168 211 -279 318 -393 375 -917 608 -1444 640 -95 6
-226 10 -228 7z m299 -157 c40 -4 82 -9 95 -12 13 -2 40 -7 59 -10 19 -3 53
-10 75 -16 22 -5 47 -11 55 -13 41 -8 145 -41 235 -75 356 -135 656 -344 902
-628 32 -37 61 -69 64 -72 4 -3 45 -62 92 -133 167 -247 293 -550 341 -817 9
-47 18 -98 21 -115 15 -83 23 -324 15 -475 -2 -57 -37 -282 -51 -335 -6 -22
-12 -47 -14 -56 -18 -94 -104 -310 -181 -459 -174 -333 -412 -600 -726 -813
-105 -71 -377 -209 -496 -251 -60 -21 -236 -70 -292 -81 -28 -5 -105 -18 -125
-21 -11 -1 -45 -5 -75 -9 -81 -11 -363 -13 -450 -4 -127 14 -161 19 -275 45
-510 114 -964 407 -1278 824 -79 105 -76 100 -146 220 -157 269 -258 576 -288
880 -8 79 -8 427 0 495 32 273 125 557 264 807 31 56 60 107 65 113 5 5 23 33
40 60 77 121 297 363 410 451 28 22 55 44 62 50 64 59 264 181 419 254 206 98
492 179 692 196 44 3 82 8 84 10 6 6 327 -2 407 -10z"/>
<path d="M2417 4644 c-1 -1 -45 -5 -99 -8 -53 -4 -105 -8 -115 -10 -10 -2 -38
-7 -63 -11 -279 -45 -588 -169 -839 -337 -232 -156 -448 -376 -606 -618 -47
-72 -175 -315 -175 -332 0 -4 -9 -27 -19 -51 -31 -68 -93 -275 -106 -352 -35
-201 -37 -230 -37 -417 1 -152 5 -227 17 -298 2 -14 7 -45 10 -70 4 -25 13
-74 21 -110 117 -511 429 -979 852 -1279 39 -28 74 -51 76 -51 2 0 28 -16 58
-35 92 -61 288 -152 428 -198 239 -79 415 -108 662 -110 108 0 175 3 319 18
65 7 273 57 377 91 244 80 511 230 717 405 118 100 290 292 377 420 56 83 142
229 145 248 1 8 8 18 15 22 7 5 10 9 6 9 -4 0 9 34 28 75 66 144 119 325 158
540 29 160 25 468 -9 665 -57 334 -186 644 -376 905 -81 112 -119 157 -228
266 -172 171 -349 297 -567 404 -132 65 -343 141 -454 164 -30 6 -66 14 -80
16 -95 20 -131 25 -208 31 -78 5 -281 11 -285 8z m333 -149 c104 -15 181 -29
244 -46 23 -6 48 -13 56 -14 8 -2 16 -4 18 -5 1 -2 5 -3 10 -4 73 -19 260 -94
353 -144 309 -161 590 -423 779 -725 46 -74 120 -213 125 -237 1 -3 6 -16 12
-30 6 -14 10 -28 9 -31 0 -3 4 -12 10 -20 24 -28 90 -261 114 -394 32 -186 35
-566 5 -675 -2 -8 -7 -31 -10 -50 -14 -86 -69 -273 -110 -375 -120 -299 -332
-590 -575 -788 -41 -34 -77 -64 -80 -67 -3 -3 -12 -9 -21 -15 -8 -5 -51 -34
-95 -63 -92 -62 -307 -169 -414 -207 -115 -41 -285 -82 -390 -94 -52 -7 -108
-14 -125 -16 -39 -6 -303 -6 -335 -1 -14 3 -50 7 -80 10 -30 3 -66 8 -80 11
-14 3 -50 10 -80 16 -30 5 -66 12 -79 15 -43 9 -216 65 -258 85 -24 10 -45 19
-49 19 -21 0 -238 119 -331 182 -438 294 -749 765 -847 1283 -27 141 -28 157
-31 370 -4 231 4 304 55 510 55 222 141 418 268 610 36 55 68 102 71 105 4 3
26 30 51 60 175 216 438 424 682 539 91 44 280 116 326 126 9 2 46 10 82 19
229 54 509 69 720 41z"/>
<path d="M2295 4422 c-2 -2 -23 -6 -47 -8 -24 -1 -43 -3 -43 -4 0 -2 -92 -20
-125 -24 -9 -1 -21 -5 -28 -10 -6 -4 -12 -5 -12 -2 0 3 -12 1 -27 -5 -28 -11
-41 -14 -85 -24 -13 -2 -32 -9 -43 -14 -11 -5 -54 -21 -95 -36 -268 -98 -590
-333 -779 -570 -31 -38 -59 -72 -62 -75 -3 -3 -34 -48 -68 -100 -64 -97 -159
-281 -186 -360 -1 -3 -5 -12 -8 -20 -6 -14 -48 -148 -62 -197 -3 -12 -8 -32
-10 -45 -3 -13 -7 -34 -10 -48 -9 -48 -16 -85 -22 -130 -8 -58 -8 -444 1 -490
3 -19 8 -51 11 -70 3 -19 9 -57 15 -85 6 -27 12 -59 15 -70 2 -11 4 -20 5 -20
1 0 3 -7 5 -15 25 -115 118 -337 195 -466 226 -378 563 -672 947 -825 43 -17
83 -32 88 -34 12 -2 40 -13 74 -26 13 -5 26 -8 29 -5 2 3 17 -1 32 -9 15 -8
30 -12 33 -9 3 3 12 2 19 -2 7 -5 18 -9 23 -10 6 -1 26 -5 45 -8 19 -3 53 -9
75 -12 22 -3 63 -9 90 -13 28 -4 129 -6 225 -5 220 2 266 7 440 48 645 152
1177 643 1384 1276 24 74 51 176 60 225 8 50 18 104 22 120 10 50 12 365 2
445 -18 154 -20 169 -50 290 -64 265 -194 519 -381 748 -71 87 -181 200 -238
244 -16 12 -42 33 -57 46 -50 43 -227 158 -297 194 -122 63 -244 110 -395 153
-28 8 -155 36 -190 41 -19 4 -46 8 -60 11 -35 6 -449 11 -455 5z m420 -123
c33 -5 76 -12 95 -14 189 -28 429 -118 620 -233 413 -248 722 -668 830 -1130
29 -123 28 -120 35 -192 4 -36 9 -76 11 -90 6 -35 6 -265 0 -303 -3 -18 -8
-56 -11 -85 -15 -151 -76 -352 -161 -530 -48 -101 -158 -283 -195 -322 -8 -8
-26 -31 -41 -51 -33 -45 -156 -171 -228 -233 -71 -62 -251 -180 -358 -235
-164 -84 -415 -161 -582 -179 -125 -14 -521 -5 -548 12 -4 2 -23 7 -42 10
-243 39 -575 197 -790 374 -71 59 -204 193 -255 257 -22 28 -42 52 -45 55 -22
20 -190 301 -190 317 0 2 -11 28 -24 56 -22 50 -74 194 -81 226 -2 9 -10 45
-19 81 -8 36 -18 81 -21 100 -2 19 -9 62 -14 95 -10 64 -8 430 3 480 3 17 9
41 13 55 3 14 6 28 5 32 -2 10 26 122 50 198 28 89 85 221 130 304 21 38 38
70 38 72 0 4 106 160 121 178 108 131 174 200 264 275 44 36 82 69 83 74 2 4
8 7 12 7 5 0 38 20 72 44 216 151 518 263 783 292 33 3 62 8 64 10 8 7 321 2
376 -7z"/>
<path d="M2247 4184 c-112 -18 -275 -61 -348 -90 -70 -28 -251 -115 -259 -124
-3 -3 -25 -18 -50 -32 -175 -102 -375 -297 -515 -503 -61 -91 -155 -285 -194
-404 -59 -178 -79 -304 -79 -516 -1 -190 7 -263 47 -436 36 -159 166 -442 253
-554 5 -5 28 -37 53 -69 194 -256 505 -475 815 -575 190 -62 258 -72 480 -77
321 -6 508 32 779 159 127 59 306 174 377 242 12 11 39 36 60 56 36 33 99 100
166 177 15 17 44 57 65 89 21 32 41 60 44 63 4 3 23 37 43 75 21 39 41 77 46
85 48 85 116 295 145 444 21 106 23 144 21 316 -3 173 -6 217 -20 295 -34 187
-131 441 -218 572 -15 23 -28 44 -28 48 0 18 -126 173 -214 263 -253 259 -565
426 -920 490 -130 24 -425 27 -549 6z m445 -98 c21 -3 53 -8 70 -11 18 -3 44
-7 58 -9 175 -29 437 -144 612 -269 244 -175 460 -454 553 -717 15 -41 30 -84
35 -95 13 -34 28 -88 36 -130 4 -22 8 -42 9 -45 1 -3 5 -30 9 -60 5 -30 10
-64 13 -75 11 -51 9 -289 -3 -377 -31 -227 -107 -447 -216 -627 -113 -187
-327 -406 -502 -514 -29 -18 -61 -37 -72 -44 -115 -71 -396 -172 -526 -188
-28 -4 -60 -9 -72 -11 -40 -9 -292 -11 -366 -3 -235 26 -488 114 -690 240
-161 101 -340 273 -454 436 -20 29 -36 57 -36 63 0 5 -4 10 -8 10 -7 0 -90
158 -123 235 -21 49 -62 186 -80 265 -50 229 -47 505 7 715 9 33 17 65 18 70
19 78 84 235 137 332 90 165 253 355 412 481 221 175 524 300 797 328 36 3 66
7 68 9 5 4 276 -3 314 -9z"/>
<path d="M2650 4001 c-25 -27 -88 -95 -140 -151 -52 -56 -94 -106 -92 -111 1
-5 -2 -8 -6 -7 -5 2 -26 -17 -48 -41 -21 -24 -54 -59 -71 -77 -29 -30 -30 -34
-12 -34 11 0 28 4 37 9 9 4 31 11 48 14 l32 6 -50 -112 c-92 -206 -109 -249
-104 -254 2 -2 19 15 37 39 18 24 41 52 51 63 10 11 43 52 74 90 55 69 120
147 139 169 6 6 28 34 50 61 22 28 43 52 47 53 5 2 8 8 8 14 0 5 10 18 23 28
32 27 16 34 -53 23 -42 -7 -57 -6 -51 1 18 23 140 266 133 266 -4 0 -27 -22
-52 -49z"/>
<path d="M3130 3735 c-63 -40 -161 -102 -217 -137 -57 -35 -101 -67 -100 -72
2 -5 14 -11 27 -13 34 -5 35 -9 9 -36 -75 -76 -245 -261 -252 -273 -4 -8 -5
-14 -2 -14 9 0 106 63 304 198 l163 111 -28 13 c-16 6 -30 13 -32 13 -1 1 53
58 120 127 68 69 129 132 137 141 28 34 -14 15 -129 -58z"/>
<path d="M1751 3329 c-48 -19 -85 -81 -96 -162 -7 -49 -59 -139 -153 -264 -90
-120 -116 -149 -192 -212 -36 -29 -99 -84 -140 -121 -41 -38 -90 -81 -108 -96
-32 -25 -63 -73 -69 -104 -7 -37 -4 -117 5 -140 5 -14 11 -29 12 -35 13 -58
103 -161 167 -192 40 -19 144 -25 175 -9 12 5 19 4 22 -5 82 -277 170 -487
210 -502 19 -7 90 1 123 14 15 7 34 13 41 15 24 5 102 55 104 67 4 36 3 43 -5
55 -5 6 -7 12 -4 12 3 0 -10 35 -29 78 -77 168 -151 379 -138 392 5 4 30 15
56 24 44 15 64 19 143 32 17 2 55 9 85 14 30 5 64 10 75 10 11 0 54 2 95 5 52
3 87 0 115 -10 22 -8 52 -17 67 -19 70 -12 149 44 169 118 14 53 14 170 -1
225 -6 24 -10 44 -8 46 5 5 250 127 353 176 50 23 93 47 97 53 4 6 8 8 8 4 0
-4 37 11 82 34 l83 42 -40 12 c-22 7 -48 13 -57 13 -36 2 -25 21 48 77 92 72
154 128 134 121 -51 -17 -156 -63 -161 -70 -3 -5 -9 -8 -13 -8 -15 1 -376
-146 -390 -159 -9 -9 2 -13 86 -27 l48 -8 -63 -52 c-73 -62 -116 -100 -175
-154 -37 -35 -43 -38 -48 -22 -22 62 -78 200 -85 208 -5 5 -9 15 -9 22 0 11
-36 72 -60 100 -5 7 -10 15 -10 18 0 17 -87 129 -151 193 -158 162 -301 230
-398 191z"/>
<path d="M3033 2275 c-51 -24 -93 -48 -93 -54 0 -6 -11 -6 -29 -1 -22 6 -39 4
-63 -9 -40 -22 -98 -94 -98 -124 -1 -33 -17 0 -22 43 -3 19 -7 34 -11 33 -4
-2 -20 -9 -36 -17 -15 -8 -37 -15 -47 -15 -21 1 -226 -81 -235 -94 -3 -5 -22
-5 -41 -2 -64 12 -135 -47 -160 -132 l-12 -38 -10 61 -11 62 -49 -21 -48 -22
5 -58 5 -59 -24 42 c-13 23 -24 46 -24 52 0 5 -4 8 -8 6 -4 -1 -31 -12 -60
-23 -61 -22 -58 -3 -28 -190 22 -131 24 -142 31 -195 3 -25 8 -57 11 -72 l5
-26 54 31 c54 32 54 32 49 72 l-6 40 22 -42 22 -43 46 32 c26 17 52 37 58 44
10 12 16 12 39 0 68 -36 151 25 190 139 19 55 22 161 6 212 -6 22 -6 35 0 39
6 3 12 4 14 2 4 -4 27 -136 40 -223 10 -72 17 -105 23 -105 4 0 111 58 118 64
3 2 -12 89 -39 234 -8 40 -11 75 -6 77 11 7 18 -7 23 -46 2 -19 7 -45 10 -59
11 -48 20 -112 27 -197 2 -18 4 -33 6 -33 1 0 19 11 39 25 21 14 48 28 61 31
19 5 22 11 18 35 -6 32 1 36 24 15 46 -41 128 -9 164 65 l15 32 7 -41 6 -40
71 39 c39 22 74 39 77 39 3 0 17 9 29 18 23 18 23 21 11 63 -7 24 -14 45 -15
47 -1 2 -16 -4 -33 -13 -29 -15 -32 -15 -38 2 -3 10 -8 21 -10 25 -2 4 15 17
37 28 22 11 38 24 36 29 -3 4 -8 23 -11 41 -8 48 -13 52 -46 35 -16 -9 -29
-14 -30 -13 -13 45 -8 58 28 76 23 11 37 24 35 33 -2 8 -5 29 -6 48 -1 19 -6
36 -11 37 -6 2 -52 -17 -102 -41z m-59 -268 l6 -55 -32 0 c-54 0 -58 -1 -55
-21 1 -11 -2 -21 -8 -23 -6 -2 -10 21 -11 54 -2 78 5 110 22 104 8 -3 14 -2
14 3 0 4 10 13 23 18 27 12 33 1 41 -80z m-619 -156 c19 -60 -3 -161 -35 -161
-13 0 -28 59 -23 95 9 72 43 111 58 66z"/>
<path d="M3685 1987 c-42 -24 -43 -28 -33 -102 29 -201 35 -217 70 -177 15 16
16 30 3 79 -8 34 6 28 39 -17 27 -36 32 -39 50 -27 30 21 29 29 -10 71 l-36
38 18 39 c13 31 15 48 8 77 -8 31 -13 37 -39 40 -17 1 -47 -8 -70 -21z m69
-59 c-6 -21 -27 -48 -37 -48 -3 0 -7 13 -9 30 -5 30 2 38 35 39 14 1 17 -4 11
-21z"/>
<path d="M3562 1944 c-57 -27 -56 -24 -38 -100 2 -12 7 -45 11 -75 3 -30 10
-68 15 -86 4 -17 5 -34 2 -37 -12 -12 10 -5 62 21 44 21 55 31 52 47 -2 12
-10 19 -17 17 -8 -2 -21 -5 -29 -8 -10 -3 -16 3 -17 14 -1 10 -3 25 -5 32 -2
8 9 21 25 28 22 12 25 17 17 33 -9 16 -15 18 -37 9 -15 -6 -25 -7 -21 -4 3 4
2 20 -3 37 -7 27 -6 31 21 41 21 8 30 18 30 34 0 28 -2 28 -68 -3z"/>
<path d="M3445 1900 c-22 -10 -48 -19 -57 -19 -22 -1 -28 -13 -21 -39 3 -14
12 -21 25 -19 12 1 22 -5 23 -13 9 -49 17 -100 21 -133 5 -33 11 -66 13 -75 1
-1 15 5 32 14 28 14 30 19 24 47 -28 134 -32 178 -19 192 15 14 20 66 7 64 -5
0 -26 -9 -48 -19z"/>
<path d="M3255 1828 c-34 -29 -51 -73 -40 -107 3 -11 25 -27 50 -37 58 -22 71
-37 50 -58 -11 -10 -25 -14 -41 -10 -16 4 -24 2 -25 -7 0 -8 -2 -22 -4 -32 -6
-32 78 -35 110 -4 57 58 39 144 -35 166 -42 13 -56 33 -34 51 11 10 17 10 29
0 13 -10 19 -10 35 5 15 14 17 21 8 41 -15 32 -58 29 -103 -8z"/>
<path d="M3110 1786 c-44 -21 -45 -22 -43 -66 3 -81 11 -235 12 -243 1 -4 14
-1 29 7 23 12 28 21 27 45 -1 19 4 32 13 36 17 6 32 -11 32 -37 0 -10 4 -18 9
-18 5 0 18 8 30 18 l21 17 -21 70 c-11 39 -28 95 -36 125 -9 30 -19 58 -22 61
-3 4 -26 -3 -51 -15z m35 -124 c11 -43 11 -52 -1 -56 -8 -3 -14 -2 -15 2 -12
126 -8 141 16 54z"/>
<path d="M2974 1739 c-32 -11 -62 -60 -72 -115 -8 -49 -8 -49 -16 -17 -8 33
-47 73 -72 73 -8 0 -32 -7 -54 -16 -40 -16 -40 -17 -35 -58 3 -22 7 -52 10
-66 3 -14 8 -45 11 -70 9 -69 15 -104 19 -108 7 -8 43 9 67 31 33 31 60 92 61
138 1 22 2 39 3 39 1 0 10 -25 20 -55 28 -91 93 -105 129 -30 22 48 19 65 -10
65 -15 0 -25 -6 -25 -14 0 -20 -19 -31 -32 -18 -11 11 -13 101 -3 132 4 11 14
20 24 20 28 0 52 32 38 51 -17 21 -38 28 -63 18z m-146 -152 c10 -35 8 -103
-3 -138 -8 -25 -15 -19 -21 18 -2 15 -8 54 -12 85 -5 32 -7 60 -4 63 14 14 32
2 40 -28z"/>
<path d="M2628 1614 c-27 -13 -48 -30 -49 -37 -3 -35 9 -268 13 -273 10 -9 53
25 54 43 1 12 4 29 8 38 5 14 9 15 21 5 8 -7 15 -21 15 -31 0 -22 19 -25 44
-6 18 13 18 16 0 73 -9 32 -18 61 -19 64 -1 3 -5 22 -9 43 -5 20 -12 40 -17
43 -5 3 -7 9 -4 14 3 4 2 17 -2 28 -8 20 -9 20 -55 -4z m30 -124 c12 -48 2
-74 -20 -52 -9 9 -9 12 1 12 7 0 10 3 7 8 -2 4 -7 28 -11 52 -8 57 8 42 23
-20z"/>
<path d="M2430 1540 c-69 -73 -58 -268 15 -286 76 -19 143 123 109 234 -25 86
-74 106 -124 52z m85 -116 c3 -48 -11 -90 -33 -99 -28 -10 -44 24 -39 84 7 93
65 105 72 15z"/>
<path d="M2300 1503 c-8 -3 -34 -13 -57 -24 -39 -17 -42 -21 -38 -51 8 -65 16
-111 25 -154 6 -24 10 -47 9 -51 -3 -21 2 -43 10 -43 5 0 18 8 29 18 18 15 20
23 13 59 -5 23 -6 45 -3 47 2 3 18 -15 34 -39 29 -43 30 -44 54 -29 13 9 24
19 24 23 0 4 -16 24 -35 45 -35 38 -43 60 -26 70 14 9 22 72 12 98 -10 27 -27
38 -51 31z m20 -70 c0 -10 -35 -63 -41 -63 -4 0 -9 14 -11 30 -3 21 0 34 11
39 14 9 41 4 41 -6z"/>
<path d="M2116 1443 c-10 -3 -33 -13 -50 -22 -35 -20 -35 -8 -6 -176 6 -33 13
-73 14 -90 2 -16 4 -33 5 -38 0 -4 16 0 34 9 102 53 134 120 81 169 -20 18
-24 28 -16 37 16 20 19 73 4 94 -9 15 -42 23 -66 17z m27 -70 c9 -9 -23 -44
-34 -37 -17 10 -10 44 9 44 10 0 22 -3 25 -7z m27 -113 c0 -11 -29 -40 -40
-40 -12 0 -18 59 -6 63 14 5 46 -11 46 -23z"/>
</g>
</svg>
